<svg xmlns="http://www.w3.org/2000/svg" xmlns:xlink="http://www.w3.org/1999/xlink" width="150mm" height="150mm" viewBox="0 0 150 150"><defs><linearGradient id="c"><stop offset="0"/><stop offset="1" stop-color="#303030"/></linearGradient><linearGradient id="b"><stop offset="0" stop-color="#70b7d7"/><stop offset="1" stop-color="#397cb3"/></linearGradient><linearGradient id="a"><stop offset="0" stop-color="#501616"/><stop offset="1" stop-color="#501616" stop-opacity="0"/></linearGradient><linearGradient xlink:href="#c" id="e" x1="4.095" y1="182.49" x2="169.799" y2="60.214" gradientUnits="userSpaceOnUse" gradientTransform="matrix(1.05716 0 0 1.05716 -3.11 -2.791)"/><radialGradient xlink:href="#b" id="d" cx="122.767" cy="106.684" fx="122.767" fy="106.684" r="73.63" gradientTransform="matrix(1.0186 0 0 1.0186 -.914 .16)" gradientUnits="userSpaceOnUse"/></defs><rect width="150" height="150" x="49.137" y="33.829" ry="11.569" fill="url(#d)" fill-rule="evenodd" transform="translate(-49.137 -33.829)"/><path d="M185.39 102.896c-16.708.013-27.358.332-43.063.62 8.22 15.216-.363 19.654-9.172 19.654 10.488 26.94-30.733 43.382-39.798 17.635-9.687 2.885-20.157 10.7-30.246 11.537-6.436.535-10.12-7.313-5.442-11.667 9.393-8.742 30.391-6.264 35.853-18.508-4.035-.955-6.911-5.093-7.107-8.998-6.805-.002-14.902-2.978-18.015-9.318-7.85 2.035-9.798-9.528-1.653-10.123.946-19.58 18.551-17.352 33.387-17.352 35.148 0 50.322.01 85.47.01.981-5.733 7.88-6.797 8.714-1.004 1.109 7.707 1.162 19.534.974 27.354-.18 7.475-9.3 7.476-9.903.16m-71.16 19.645c-14.7-1.344-18.373 19.855-2.817 21.181 15.755-.116 17.296-19.839 2.817-21.181z" fill="url(#e)" transform="translate(-49.137 -33.829)"/></svg>
